<svg version="1.1" id="lossless-mode" xmlns="http://www.w3.org/2000/svg" xmlns:xlink="http://www.w3.org/1999/xlink" x="0px" y="0px"
	 width="168px" height="168px" viewBox="0 0 168 168" enable-background="new 0 0 168 168" xml:space="preserve">
<path fill-rule="evenodd" clip-rule="evenodd" fill="#FF5C59" d="M0.755,84.008c0-45.914,37.208-83.122,83.122-83.122
	c45.913,0,83.121,37.208,83.121,83.122c0,45.913-37.208,83.121-83.121,83.121C37.963,167.129,0.755,129.921,0.755,84.008z"/>
<path fill="#FFFFFF" d="M84.514,45.527c4.224,0,8.448,0.044,12.67-0.021c1.892-0.029,3.697,0.239,5.51,0.757
	c7.244,2.068,14.501,4.094,21.761,6.109c1.051,0.291,1.777,0.857,2.325,1.805c3.437,5.939,6.909,11.856,10.368,17.782
	c0.879,1.506,0.752,2.397-0.458,3.638c-8.083,8.283-16.163,16.57-24.241,24.857c-5.082,5.212-10.16,10.427-15.24,15.641
	c-3.336,3.423-6.667,6.851-10.012,10.267c-1.275,1.304-2.58,1.309-3.85,0.008c-7.948-8.144-15.888-16.296-23.832-24.444
	c-3.896-3.996-7.796-7.988-11.691-11.984c-4.726-4.847-9.451-9.693-14.171-14.545c-0.964-0.991-1.096-1.962-0.417-3.174
	c3.421-6.113,6.853-12.222,10.275-18.334c0.402-0.717,0.986-1.167,1.775-1.398c7.719-2.261,15.434-4.533,23.155-6.788
	c0.435-0.127,0.908-0.167,1.364-0.168C74.708,45.522,79.611,45.527,84.514,45.527z M70.807,84.648
	c4.825,11.408,9.601,22.703,14.459,34.19c4.864-11.502,9.646-22.81,14.458-34.19C90.039,84.648,80.484,84.648,70.807,84.648z
	 M115.059,54.743c-0.366-0.12-0.563-0.193-0.765-0.25c-4.452-1.252-8.898-2.528-13.364-3.732c-1.035-0.279-2.138-0.429-3.209-0.433
	c-9.125-0.033-18.249-0.022-27.374-0.011c-0.476,0.001-0.967,0.073-1.425,0.205c-3.282,0.944-6.557,1.911-9.833,2.875
	c-1.353,0.397-2.704,0.804-4.055,1.207c0.279,0.226,0.548,0.305,0.82,0.374c9.461,2.405,18.92,4.814,28.386,7.202
	c0.399,0.101,0.869,0.078,1.273-0.022c6.889-1.71,13.771-3.439,20.656-5.169C109.074,56.26,111.977,55.521,115.059,54.743z
	 M77.879,113.962c0.03-0.019,0.06-0.038,0.09-0.057c-0.058-0.175-0.104-0.354-0.176-0.524c-4.017-9.506-8.04-19.01-12.045-28.521
	c-0.193-0.461-0.475-0.648-0.935-0.772c-6.012-1.622-12.018-3.265-18.026-4.899c-1.175-0.319-2.353-0.628-3.529-0.941
	c-0.022,0.044-0.044,0.088-0.065,0.133C54.754,90.239,66.317,102.101,77.879,113.962z M118.184,59.027
	c-0.025-0.048-0.051-0.096-0.076-0.144c-9.455,2.376-18.911,4.753-28.48,7.157c4.527,4.265,8.949,8.432,13.424,12.646
	C108.131,72.087,113.157,65.557,118.184,59.027z M51.888,58.876c5.248,6.683,10.375,13.209,15.617,19.884
	c4.166-4.326,8.265-8.581,12.314-12.785C70.731,63.665,61.406,61.295,51.888,58.876z M109.665,77.897
	c0.028,0.044,0.057,0.087,0.085,0.13c7.293-1.971,14.587-3.941,21.971-5.937c-2.556-4.372-5.054-8.645-7.594-12.989
	C119.259,65.43,114.462,71.663,109.665,77.897z"/>
</svg>
