<!DOCTYPE svg PUBLIC "-//W3C//DTD SVG 1.1//EN" "http://www.w3.org/Graphics/SVG/1.1/DTD/svg11.dtd">
<svg version="1.1" id="twitter-icon" xmlns="http://www.w3.org/2000/svg" xmlns:xlink="http://www.w3.org/1999/xlink" x="0px" y="0px"
	 width="16px" height="16px" viewBox="0 0 16 16" enable-background="new 0 0 16 16" xml:space="preserve">
<path fill="#CCCCCC" d="M0.906,12.81c1.623,0.149,3.087-0.253,4.384-1.251c-0.635-0.043-1.209-0.24-1.716-0.619
	c-0.505-0.378-0.854-0.868-1.056-1.451c0.222,0,0.438,0.009,0.654-0.003C3.384,9.474,3.595,9.44,3.807,9.396
	c-0.87-0.239-1.541-0.725-1.982-1.51c-0.267-0.475-0.416-1.08-0.373-1.48c0.212,0.079,0.418,0.173,0.634,0.232
	C2.303,6.699,2.53,6.726,2.754,6.754C1.425,5.633,1.134,4.297,1.856,2.7C3.512,4.644,5.58,5.706,8.111,5.88
	c-0.02-0.192-0.045-0.366-0.053-0.541c-0.044-0.94,0.278-1.738,0.967-2.375c0.757-0.7,1.662-0.931,2.667-0.743
	c0.58,0.109,1.086,0.383,1.504,0.807c0.062,0.062,0.117,0.081,0.207,0.061c0.566-0.131,1.109-0.322,1.615-0.608
	c0.051-0.028,0.105-0.051,0.186-0.09c-0.235,0.706-0.662,1.228-1.248,1.633c0.568-0.044,1.104-0.213,1.652-0.438
	c-0.28,0.421-0.585,0.773-0.932,1.09c-0.148,0.134-0.303,0.261-0.461,0.383c-0.08,0.062-0.111,0.127-0.107,0.229
	c0.035,0.868-0.078,1.721-0.312,2.554c-0.2,0.714-0.485,1.394-0.854,2.04c-0.397,0.697-0.877,1.33-1.446,1.895
	c-0.771,0.766-1.661,1.354-2.668,1.761c-0.95,0.384-1.939,0.583-2.962,0.617c-0.718,0.025-1.432-0.021-2.135-0.171
	c-0.709-0.152-1.396-0.377-2.042-0.713c-0.267-0.139-0.531-0.284-0.796-0.427C0.897,12.83,0.902,12.82,0.906,12.81z"/>
</svg>
